<svg class="animated" id="freepik_stories-instant-information" xmlns="http://www.w3.org/2000/svg" viewBox="0 0 500 500" version="1.1" xmlns:xlink="http://www.w3.org/1999/xlink" xmlns:svgjs="http://svgjs.com/svgjs"><style>svg#freepik_stories-instant-information:not(.animated) .animable {opacity: 0;}svg#freepik_stories-instant-information.animated #freepik--background-simple--inject-82 {animation: 1s 1 forwards cubic-bezier(.36,-0.01,.5,1.38) lightSpeedRight;animation-delay: 0s;}svg#freepik_stories-instant-information.animated #freepik--Plant--inject-82 {animation: 1s 1 forwards cubic-bezier(.36,-0.01,.5,1.38) fadeIn;animation-delay: 0s;}svg#freepik_stories-instant-information.animated #freepik--Character--inject-82 {animation: 1s 1 forwards cubic-bezier(.36,-0.01,.5,1.38) zoomOut;animation-delay: 0s;}svg#freepik_stories-instant-information.animated #freepik--Table--inject-82 {animation: 1s 1 forwards cubic-bezier(.36,-0.01,.5,1.38) zoomOut;animation-delay: 0s;}svg#freepik_stories-instant-information.animated #freepik--speech-bubbles--inject-82 {animation: 1s 1 forwards cubic-bezier(.36,-0.01,.5,1.38) slideLeft;animation-delay: 0s;}            @keyframes lightSpeedRight {              from {                transform: translate3d(50%, 0, 0) skewX(-20deg);                opacity: 0;              }              60% {                transform: skewX(10deg);                opacity: 1;              }              80% {                transform: skewX(-2deg);              }              to {                opacity: 1;                transform: translate3d(0, 0, 0);              }            }                    @keyframes fadeIn {                0% {                    opacity: 0;                }                100% {                    opacity: 1;                }            }                    @keyframes zoomOut {                0% {                    opacity: 0;                    transform: scale(1.5);                }                100% {                    opacity: 1;                    transform: scale(1);                }            }                    @keyframes slideLeft {                0% {                    opacity: 0;                    transform: translateX(-30px);                }                100% {                    opacity: 1;                    transform: translateX(0);                }            }        .animator-hidden { display: none; }</style><g id="freepik--background-simple--inject-82" style="transform-origin: 239.88931274414062px 236.6282196044922px;" class="animable"><path d="M425.29,117.69l-2.43-4C402.34,79.87,365.25,59.49,326.14,62a102.26,102.26,0,0,0-15,2.06c-35.56,7.61-66.5,34.5-79.32,68.93-7.55,20.26-9.65,43.57-24,59.65-18.62,20.92-50.25,21.58-78,20.71s-59.45-.13-78,20.88c-11.61,13.15-15.3,31.86-14.36,49.48,2.48,46.64,35,88.34,76.31,109.07s90,22.59,135.23,13.47c63.37-12.78,123.64-47.86,159.86-102S454.27,176.17,425.29,117.69Z" style="fill: rgb(245, 245, 245); transform-origin: 239.88931274414062px 236.6282196044922px;" id="eldgnba4shhnp" class="animable"></path></g><g id="freepik--Plant--inject-82" style="transform-origin: 407.52740478515625px 395.56407165527344px;" class="animable"><path d="M398.42,426.34s-24.28-28-33.45-55.91-4.81-24.75-4.81-24.75,12.37,27.16,21.77,40.27,26.12,32.37,26.12,32.37Z" style="fill: rgb(69, 90, 100); transform-origin: 383.58706855773926px 385.95612716674805px;" id="elhjrwsxtvfho" class="animable"></path><path d="M403.26,350a1.41,1.41,0,0,0-2.63.9c1.48,9.82,4.68,32.86,4.56,47.81-.17,19.41,0,26.91,0,26.91H415.3s-1.79-40.13-4.08-52.37C409.62,364.71,406.22,355.19,403.26,350Z" style="fill: rgb(69, 90, 100); transform-origin: 407.9558653831482px 387.44226455688477px;" id="elfvuini9x5ot" class="animable"></path><path d="M408.78,422.4a107.17,107.17,0,0,0,8.32-30.18c.83-7.15-.66-16.81-2.87-29.69A79.43,79.43,0,0,1,413,348.24a2.41,2.41,0,0,1,4.52-1.13c1.22,2.17,4.76,9.61,5.65,14.27,2.45,12.73,5.22,19.09,3.1,31.17s-10,30.67-10,30.67Z" style="fill: rgb(69, 90, 100); transform-origin: 417.90225887298584px 384.5419158935547px;" id="elb2k8zic259o" class="animable"></path><path d="M417.88,423.22s26.67-57.31,28.52-65.81,8.13-28.1,8.87-27,1.85,11.46-3,23.29S427,425,427,425h-9.11" style="fill: rgb(69, 90, 100); transform-origin: 436.90532875061035px 377.68276596069336px;" id="elaaa0u0loc4p" class="animable"></path><path d="M405.86,420.65a4.44,4.44,0,0,1-.75-.51c-.48-.36-1.19-.86-2.07-1.58a94.14,94.14,0,0,1-7.16-6.32,119.8,119.8,0,0,1-19.35-24.84,162.15,162.15,0,0,1-13.21-28.6c-1.34-3.81-2.32-6.92-2.95-9.09-.33-1.08-.55-1.93-.71-2.5a6.26,6.26,0,0,1-.21-.88,5,5,0,0,1,.32.85l.81,2.47c.7,2.14,1.73,5.23,3.12,9A172.71,172.71,0,0,0,377,387.11,125.12,125.12,0,0,0,396.16,412c2.85,2.84,5.29,5,7,6.44.85.74,1.55,1.27,2,1.66A7.77,7.77,0,0,1,405.86,420.65Z" style="fill: rgb(38, 50, 56); transform-origin: 382.6549835205078px 383.489990234375px;" id="elv1cdyok4kqd" class="animable"></path><path d="M408.77,393.16a10.1,10.1,0,0,1-.24-1.68c-.12-1.19-.29-2.73-.49-4.6-.42-3.87-1.08-9.22-2-15.09s-2-11.16-2.81-15c-.4-1.83-.72-3.35-1-4.51a9.85,9.85,0,0,1-.29-1.67,11.61,11.61,0,0,1,.51,1.61c.3,1.06.69,2.59,1.15,4.49.92,3.79,2,9.08,3,15s1.54,11.25,1.86,15.15c.16,1.94.27,3.52.31,4.61A9.62,9.62,0,0,1,408.77,393.16Z" style="fill: rgb(38, 50, 56); transform-origin: 405.373592376709px 371.88499450683594px;" id="eln20g0ymqmmr" class="animable"></path><path d="M415,346.66a3.3,3.3,0,0,1,.31.73c.21.54.47,1.24.8,2.13s.76,2.06,1.15,3.41.91,2.86,1.29,4.59c.22.86.44,1.76.66,2.69s.39,1.93.59,3c.44,2,.71,4.24,1,6.56A97.46,97.46,0,0,1,419.76,400c-.48,2.29-.91,4.47-1.49,6.47-.28,1-.51,2-.8,2.9s-.58,1.8-.85,2.64c-.51,1.69-1.13,3.17-1.62,4.48s-1,2.43-1.39,3.32-.71,1.55-.95,2.07a3.76,3.76,0,0,1-.36.7,4.15,4.15,0,0,1,.26-.75c.21-.53.5-1.23.85-2.1s.84-2,1.29-3.35,1.06-2.8,1.54-4.49l.81-2.64c.28-.92.5-1.9.76-2.9.56-2,1-4.17,1.44-6.45a101.07,101.07,0,0,0,1.08-30.13c-.31-2.31-.56-4.5-1-6.53-.2-1-.34-2-.55-2.95l-.63-2.69c-.36-1.72-.84-3.24-1.21-4.59s-.73-2.5-1.05-3.43l-.69-2.16A3.63,3.63,0,0,1,415,346.66Z" style="fill: rgb(38, 50, 56); transform-origin: 416.9087905883789px 384.6200256347656px;" id="elg85ac3ekaq" class="animable"></path><path d="M455,331.57a1,1,0,0,1,0,.26q0,.3-.12.75c-.11.65-.26,1.62-.52,2.85-.52,2.46-1.38,6-2.71,10.31s-3.15,9.36-5.31,14.9-4.65,11.6-7,18-4.26,12.7-6,18.38-3.36,10.81-4.94,15a95,95,0,0,1-4.21,9.8c-.54,1.13-1,2-1.35,2.56l-.37.66q-.13.22-.15.21a.86.86,0,0,1,.09-.24l.33-.68c.28-.6.74-1.46,1.25-2.61,1.08-2.27,2.52-5.61,4-9.84s3.12-9.34,4.81-15,3.56-12,6-18.43,4.89-12.49,7.06-18,4-10.55,5.42-14.83,2.29-7.79,2.87-10.24c.29-1.22.48-2.18.63-2.83.07-.29.13-.53.17-.73A1.68,1.68,0,0,1,455,331.57Z" style="fill: rgb(38, 50, 56); transform-origin: 438.6642646789551px 378.4102210998535px;" id="eloshjmnssrvb" class="animable"></path><path d="M372.73,318.92a2.29,2.29,0,0,0-3.78,2.34,67.53,67.53,0,0,0,3.35,8.61c3.67,7.79,14.44,35.75,19.48,51.1s12.14,44,12.14,44l10.77-1.74s-9.85-47.06-19.47-64C387.48,345.58,379.75,325.89,372.73,318.92Z" style="fill: rgb(69, 90, 100); transform-origin: 391.76479721069336px 371.6190643310547px;" id="el4jsltmqi7cq" class="animable"></path><path d="M394.73,390.57a7.6,7.6,0,0,1,.55,1.29c.32.85.75,2.08,1.24,3.62,1,3.07,2.21,7.36,3.43,12.12s2.23,9.1,2.94,12.25c.32,1.48.59,2.73.81,3.73a6.27,6.27,0,0,1,.22,1.38,6.54,6.54,0,0,1-.44-1.33l-1-3.69c-.82-3.24-1.91-7.49-3.1-12.2s-2.37-9.05-3.26-12.15c-.43-1.46-.79-2.68-1.07-3.66A6,6,0,0,1,394.73,390.57Z" style="fill: rgb(38, 50, 56); transform-origin: 399.3249816894531px 407.7650146484375px;" id="elx9tescx40q" class="animable"></path><path d="M409.33,424.09a1.19,1.19,0,0,1-.06-.29l-.12-.85c-.12-.74-.22-1.84-.44-3.25-.4-2.83-1.1-6.91-2.26-11.88a171.8,171.8,0,0,0-5-17.2c-2.21-6.37-5-13.26-8.11-20.4C387,356,380.64,343.34,376.48,334c-2.1-4.66-3.73-8.47-4.8-11.12-.55-1.32-.94-2.36-1.21-3.06l-.3-.8a1.37,1.37,0,0,1-.08-.28s.05.08.13.25l.36.79c.31.73.75,1.73,1.3,3,1.14,2.63,2.82,6.4,5,11,4.24,9.29,10.62,21.9,17,36.16,3.14,7.15,5.9,14.06,8.09,20.46a161.44,161.44,0,0,1,4.93,17.28,120.86,120.86,0,0,1,2.09,11.94c.19,1.41.26,2.52.33,3.27,0,.35.05.63.07.86A1.07,1.07,0,0,1,409.33,424.09Z" style="fill: rgb(38, 50, 56); transform-origin: 389.7400207519531px 371.4150085449219px;" id="elq5h0ua18s9h" class="animable"></path><path d="M414.69,423.22a11.33,11.33,0,0,1-.37-1.81c-.21-1.27-.49-2.93-.83-5-.75-4.17-1.88-9.92-3.51-16.17s-3.42-11.82-4.82-15.82l-1.69-4.73a13.3,13.3,0,0,1-.57-1.75,10.86,10.86,0,0,1,.78,1.67c.46,1.09,1.11,2.68,1.86,4.67a158.82,158.82,0,0,1,5,15.82,164.79,164.79,0,0,1,3.34,16.24c.31,2.1.55,3.81.66,5A11.79,11.79,0,0,1,414.69,423.22Z" style="fill: rgb(38, 50, 56); transform-origin: 408.7949833869934px 400.5799865722656px;" id="eln57otc51li" class="animable"></path><rect x="394.76" y="421.67" width="42.02" height="51.19" style="fill: rgb(0, 154, 214); transform-origin: 415.77px 447.265px;" id="elzfu0hbbdnwm" class="animable"></rect><g id="elx5fjechhrrj"><g style="opacity: 0.30000000000000004; transform-origin: 415.77000999450684px 447.26501274108887px;" class="animable"><rect x="394.76" y="421.67" width="42.02" height="51.19" id="el0lpewiqm6oio" style="transform-origin: 415.77px 447.265px;" class="animable"></rect></g></g><rect x="386.1" y="421.67" width="37.28" height="51.19" style="fill: rgb(0, 154, 214); transform-origin: 404.74px 447.265px;" id="elpz958rczct" class="animable"></rect></g><g id="freepik--Character--inject-82" style="transform-origin: 233.94292449951172px 288.5649948120117px;" class="animable"><path d="M156.47,256.91l0,0S156.48,256.87,156.47,256.91Z" style="fill: rgb(0, 154, 214); transform-origin: 156.4722222222481px 256.90110270213336px;" id="elkxif0wydb2" class="animable"></path><path d="M353.7,396.33c-.33-7.19-11.11-103.84-12.74-116.25-2.6-19.82-18.54-24.79-18.54-24.79h0l-54.19-18.7H214.61l-58.11,20.3,0,1c0-.54,0-.87,0-1-.58.32-14.88,4.39-18.31,18.48-1.87,7.7-23.7,116.93-24,120.14s2.57,22.79,18,25.36c5.77,1,18.26.07,31.61-1.41L153.29,473H321.73l-6-38.27c13.39-5.22,27.41-11,29.75-13.48C350.1,416.53,354,403.51,353.7,396.33ZM163.15,368.8Z" style="fill: rgb(0, 154, 214); transform-origin: 233.94292449951172px 354.7949905395508px;" id="elg1bdznzwaet" class="animable"></path><g id="el03gga8xy97b9"><g style="opacity: 0.30000000000000004; transform-origin: 197.25317573547363px 389.04315757751465px;" class="animable"><path d="M207.19,385a30.56,30.56,0,0,0-2.48-10c-1.52-3.09-4.15-5.8-7.49-6.66s-7.34.53-8.82,3.65c-6.08,17-.55,26.66,11,35.87,1.84,1.47,4.11,2.61,6.36,1.94s2.66-2.29,2.77-4.6C208.87,398.35,208,391.76,207.19,385Z" id="el0tr0kyvglh7l" style="transform-origin: 197.25317573547363px 389.04315757751465px;" class="animable"></path></g></g><path d="M183.45,365.6a5.37,5.37,0,0,1-1.1.18l-3,.32c-2.6.25-6.23.58-10.38.93l.12,0c-.95.66-1.93,1.35-2.92,2.07a53.17,53.17,0,0,0-9.55,8.47,27.23,27.23,0,0,0-2.27,3.13,8,8,0,0,1-.75,1.22,6.72,6.72,0,0,1,.57-1.32,22.63,22.63,0,0,1,2.16-3.26,48.2,48.2,0,0,1,9.54-8.66c1-.73,2-1.41,2.93-2.07l.06,0h.06c4.16-.32,7.8-.59,10.41-.75l3.06-.17A5.24,5.24,0,0,1,183.45,365.6Z" style="fill: rgb(38, 50, 56); transform-origin: 168.5249786376953px 373.75964069366455px;" id="elhcw41cetx3c" class="animable"></path><path d="M209.66,384.32a1.1,1.1,0,0,1,.08.3l.19.9c.15.79.36,2,.53,3.47a113.87,113.87,0,0,1,.7,12.92c0,1.36,0,2.79,0,4.28a6.37,6.37,0,0,1-1.51,4.43,6.84,6.84,0,0,1-4.47,2.24l-5.19.9c-7.1,1.25-14.89,2.75-23.12,4.08s-16.11,2.27-23.3,2.9-13.7,1.13-19.17.74a26.93,26.93,0,0,1-3.87-.54,11,11,0,0,1-3.25-1.33,25.07,25.07,0,0,1-4.35-3.48c-1.1-1.07-1.9-1.94-2.45-2.53l-.61-.67a1.69,1.69,0,0,1-.2-.25l.24.21.65.64c.56.57,1.4,1.41,2.51,2.45a25.77,25.77,0,0,0,4.36,3.38,10.67,10.67,0,0,0,3.17,1.26,27.58,27.58,0,0,0,3.83.49c5.43.35,11.92-.15,19.09-.85s15.06-1.6,23.27-2.94,16-2.81,23.11-4l5.2-.89a6.35,6.35,0,0,0,4.23-2.07,5.88,5.88,0,0,0,1.42-4.15c.05-1.48.07-2.91.07-4.27a124,124,0,0,0-.53-12.89c-.14-1.52-.32-2.69-.43-3.49-.06-.37-.1-.67-.14-.9A1.2,1.2,0,0,1,209.66,384.32Z" style="fill: rgb(38, 50, 56); transform-origin: 165.41863250732422px 402.96876335144043px;" id="ellxm7f4xzgfh" class="animable"></path><path d="M175.13,303.3c.15,0-1.13,14.24-2.86,31.76s-3.23,31.73-3.38,31.71S170,352.54,171.76,335,175,303.29,175.13,303.3Z" style="fill: rgb(38, 50, 56); transform-origin: 172.00991415977478px 335.03500175476074px;" id="el7mjnocflrgm" class="animable"></path><path d="M313.29,290.92a1.27,1.27,0,0,1,0,.25c0,.19,0,.42,0,.71,0,.66-.05,1.57-.09,2.72-.08,2.37-.24,5.79-.46,10-.45,8.46-1.25,20.14-2.25,33s-1.86,24.55-2.4,33c-.26,4.2-.48,7.6-.63,10-.07,1.15-.14,2.06-.18,2.72,0,.29,0,.52-.06.71a.92.92,0,0,1,0,.24.87.87,0,0,1,0-.24v-.71c0-.67,0-1.58.08-2.73.08-2.37.24-5.79.46-10,.45-8.46,1.26-20.13,2.25-33s1.86-24.55,2.4-33c.27-4.19.48-7.6.63-10,.08-1.15.14-2,.18-2.72,0-.28.05-.52.06-.71A.92.92,0,0,1,313.29,290.92Z" style="fill: rgb(38, 50, 56); transform-origin: 310.25392723083496px 337.5950012207031px;" id="elh5ynvj3606n" class="animable"></path><path d="M348.69,394.62a42,42,0,0,0-3.11-4.42A24.36,24.36,0,0,0,335,383a43.8,43.8,0,0,0-7-1.63,15.45,15.45,0,0,0-9.48,1.55,9.31,9.31,0,0,1-1.3.65s.09-.1.29-.24a10.34,10.34,0,0,1,.92-.59,14.76,14.76,0,0,1,3.69-1.53,16,16,0,0,1,5.94-.31,40.49,40.49,0,0,1,7.08,1.61A23.62,23.62,0,0,1,345.86,390a21.69,21.69,0,0,1,2.23,3.32A7,7,0,0,1,348.69,394.62Z" style="fill: rgb(38, 50, 56); transform-origin: 332.9550018310547px 387.6873950958252px;" id="eltm3pt6at6c" class="animable"></path><path d="M320.46,432.93a2.6,2.6,0,0,1-.58.3l-1.72.77c-1.49.66-3.65,1.62-6.35,2.75a62.34,62.34,0,0,1-9.7,3.42,14.59,14.59,0,0,1-6.12.17,11.87,11.87,0,0,1-5.72-3.2,16.2,16.2,0,0,1-3.54-5.53,36.47,36.47,0,0,1-1.89-5.79A85.8,85.8,0,0,1,283,415.7c-.35-2.91-.55-5.26-.69-6.89-.06-.77-.1-1.4-.14-1.88a3.34,3.34,0,0,1,0-.66,3.06,3.06,0,0,1,.12.65c.06.48.14,1.1.23,1.87.2,1.62.46,4,.86,6.86a88.12,88.12,0,0,0,1.9,10.05,37,37,0,0,0,1.89,5.71,15.84,15.84,0,0,0,3.43,5.35,11.45,11.45,0,0,0,5.47,3.08,14.14,14.14,0,0,0,5.91-.14,65.6,65.6,0,0,0,9.66-3.29l6.41-2.6,1.76-.68A2.74,2.74,0,0,1,320.46,432.93Z" style="fill: rgb(38, 50, 56); transform-origin: 301.30680084228516px 423.42760848999023px;" id="elu390k90h8z" class="animable"></path><g id="elwvwgfexvolc"><g style="opacity: 0.30000000000000004; transform-origin: 185.8104763031006px 418.9949951171875px;" class="animable"><path d="M209.77,410.15c-1.5,2.09-4.67,2.51-7.2,2.94-13.37,2.27-25.45,4.44-39,5.91l-1.72,8.84c13.68-2.19,27.76-5.08,40.67-10.09a16.25,16.25,0,0,0,4.93-2.67A6.17,6.17,0,0,0,209.77,410.15Z" id="elutpq3t5556r" style="transform-origin: 185.8104763031006px 418.9949951171875px;" class="animable"></path></g></g><g id="elko7xdxnxzy"><g style="opacity: 0.30000000000000004; transform-origin: 296.49998474121094px 421.05707931518555px;" class="animable"><path d="M287.25,409.19a50.46,50.46,0,0,0,6.18,20.9c.83,1.43,2.09,3,3.74,2.82,1.28-.14,2.17-1.29,2.84-2.38,2.59-4.18,4.94-8.16,5.74-13L293,412.44Z" id="eltfyxu5vph6n" style="transform-origin: 296.49998474121094px 421.05707931518555px;" class="animable"></path></g></g><path d="M259.41,407.69c.09.12-9.63,7.74-21.69,17s-21.92,16.73-22,16.62,9.63-7.74,21.69-17S259.32,407.58,259.41,407.69Z" style="fill: rgb(38, 50, 56); transform-origin: 237.5650691986084px 424.50000953674316px;" id="el1l6cv9g639j" class="animable"></path><path d="M312.57,390a11.92,11.92,0,0,1,.14,1.67,18.81,18.81,0,0,1,0,2c0,.76-.1,1.63-.21,2.58a67.35,67.35,0,0,1-3.62,14.56,79.64,79.64,0,0,1-6.34,13.59,41.36,41.36,0,0,1-2.54,3.78,9.34,9.34,0,0,1-1.08,1.27,9.8,9.8,0,0,1,.92-1.39c.59-.88,1.44-2.18,2.38-3.85a88.71,88.71,0,0,0,6.17-13.58,73.87,73.87,0,0,0,3.74-14.42c.13-.95.25-1.8.29-2.56s.12-1.41.1-1.94A9.62,9.62,0,0,1,312.57,390Z" style="fill: rgb(38, 50, 56); transform-origin: 305.8283405303955px 409.7249755859375px;" id="elj5mq9qgkha7" class="animable"></path><path d="M237.86,356.88s-14.85-23.72-26.5-19.06c0,0-5.92-4.85-9.7-1.74s-2.43,9.41-2.43,9.41-7.18-5.82-10.39-2.81-.87,8.15,0,10.68a45.6,45.6,0,0,1,1.36,7.86s-4.37-2.23-6.41,1.36,5.73,15.63,6.9,17.28,8.64,9,13.78,7.09,8.74-7.09,8.74-7.09Z" style="fill: rgb(255, 190, 157); transform-origin: 210.65522575378418px 361.1517143249512px;" id="ellfrojf9xigd" class="animable"></path><path d="M199.22,346.4a8.82,8.82,0,0,1,1.34.84l3.56,2.44,5.22,3.68a8,8,0,0,1,1.43,1.27,3.2,3.2,0,0,1,.79,1.89A3.87,3.87,0,0,1,209.3,360a6.54,6.54,0,0,1-4.13.44,14.06,14.06,0,0,1-3.59-1.35c-2.14-1.11-4-2.2-5.57-3.16s-2.77-1.79-3.6-2.39a8.17,8.17,0,0,1-1.25-1,10.34,10.34,0,0,1,1.37.81c.86.54,2.1,1.32,3.67,2.24s3.46,2,5.6,3a13.68,13.68,0,0,0,3.47,1.27,6,6,0,0,0,3.79-.39,3.37,3.37,0,0,0,2-3,4,4,0,0,0-2-2.79L203.9,350l-3.45-2.57A9.22,9.22,0,0,1,199.22,346.4Z" style="fill: rgb(235, 153, 110); transform-origin: 201.3599853515625px 353.49667596817017px;" id="elu5yrdihs3xe" class="animable"></path><path d="M199.42,345.68s.16.09.44.29l1.21.92c1.05.79,2.56,1.95,4.48,3.3a30.73,30.73,0,0,0,7.17,3.94,17.55,17.55,0,0,0,4.69,1,10.1,10.1,0,0,0,5-.67,4.12,4.12,0,0,0,1.79-1.69,3,3,0,0,0,.2-2.31,11.59,11.59,0,0,0-2.67-3.9,55.85,55.85,0,0,0-6.14-5.48c-1.85-1.44-3.4-2.54-4.48-3.3l-1.24-.87c-.28-.2-.43-.31-.42-.33a2.74,2.74,0,0,1,.48.24c.3.17.73.44,1.29.79,1.12.71,2.7,1.77,4.59,3.18a51.52,51.52,0,0,1,6.27,5.44c.53.58,1.07,1.18,1.57,1.84a7.32,7.32,0,0,1,1.24,2.25,3.5,3.5,0,0,1-.24,2.7,4.46,4.46,0,0,1-2,1.9,10.43,10.43,0,0,1-5.27.72,17.9,17.9,0,0,1-4.81-1.1,29.76,29.76,0,0,1-7.22-4.09c-1.91-1.39-3.39-2.6-4.4-3.45l-1.15-1C199.53,345.82,199.4,345.69,199.42,345.68Z" style="fill: rgb(235, 153, 110); transform-origin: 212.23687553405762px 346.1487970352173px;" id="elwy6mmfmozf" class="animable"></path><path d="M189.53,361.18l10.44,5c1.18.57,2.56,1.43,2.51,2.74a2.7,2.7,0,0,1-.76,1.61,8.48,8.48,0,0,1-6.94,2.51,25.35,25.35,0,0,1-7.35-2" style="fill: rgb(255, 190, 157); transform-origin: 194.9556541442871px 367.13255167007446px;" id="elrkh0ladtvlf" class="animable"></path><path d="M187.43,371.08c0-.11,1.74.62,4.57,1.34a12.91,12.91,0,0,0,5.05.28,8.44,8.44,0,0,0,2.79-1,5.55,5.55,0,0,0,2.21-2.14,1.58,1.58,0,0,0,0-1.39,3,3,0,0,0-1-1.09,21.28,21.28,0,0,0-2.67-1.4l-4.64-2.3-3.12-1.58a6.74,6.74,0,0,1-1.11-.65,6.89,6.89,0,0,1,1.2.46l3.18,1.44,4.7,2.19a22,22,0,0,1,2.75,1.43,3.35,3.35,0,0,1,1.17,1.27,2.1,2.1,0,0,1,0,1.83,7.27,7.27,0,0,1-5.39,3.37,12.57,12.57,0,0,1-5.22-.4,26.12,26.12,0,0,1-3.31-1.15A5.88,5.88,0,0,1,187.43,371.08Z" style="fill: rgb(235, 153, 110); transform-origin: 195.07489395141602px 367.2007336616516px;" id="el45efxqbjv5m" class="animable"></path><path d="M205.8,386.35l-15.73,11.87s-7.63-10.63-2.56-23.51h3.79l-.86,4.22,7.16,1.5Z" style="fill: rgb(255, 190, 157); transform-origin: 195.78554344177246px 386.4649963378906px;" id="eliodat7pb5m" class="animable"></path><path d="M187.18,374.42,193,382a12,12,0,0,0,2.24,2.43,4.08,4.08,0,0,0,3.1.87" style="fill: rgb(255, 190, 157); transform-origin: 192.76000213623047px 379.8777542114258px;" id="eldzucviziitu" class="animable"></path><path d="M198.3,385.25a2.77,2.77,0,0,1-2.37-.21,6.57,6.57,0,0,1-2.08-1.6c-.66-.73-1.29-1.59-2-2.46-1.36-1.77-2.56-3.39-3.41-4.57a10.35,10.35,0,0,1-1.29-2,11,11,0,0,1,1.58,1.76c.93,1.13,2.18,2.71,3.53,4.48.69.88,1.3,1.74,1.92,2.46a6.66,6.66,0,0,0,1.88,1.59A5.1,5.1,0,0,0,198.3,385.25Z" style="fill: rgb(235, 153, 110); transform-origin: 192.72501373291016px 379.9166307449341px;" id="elaimbp0aogqb" class="animable"></path><path d="M191.7,376.11,211,357.69a9.8,9.8,0,0,1,7-2.71l98.82,2.89a2.07,2.07,0,0,1,1.16,3.74L290.22,382a2.62,2.62,0,0,1-1.67.5l-96-4.16A1.29,1.29,0,0,1,191.7,376.11Z" style="fill: rgb(224, 224, 224); transform-origin: 255.0605926513672px 368.74015712738037px;" id="elt04rooz3qrp" class="animable"></path><path d="M318.78,360.35a1.35,1.35,0,0,1-.35,0h-1l-3.91-.06L299.13,360l-47.43-1.27L225.59,358l-5.86-.18a21.33,21.33,0,0,0-2.77,0,7.12,7.12,0,0,0-2.5.8,9.44,9.44,0,0,0-2,1.59l-1.86,1.71-3.5,3.23-10.6,9.72-2.9,2.63-.76.67-.27.22s.07-.1.23-.26l.73-.71,2.83-2.7,10.49-9.84,3.48-3.25,1.85-1.73a10,10,0,0,1,2.1-1.66,7.51,7.51,0,0,1,2.65-.86,20.72,20.72,0,0,1,2.84,0l5.86.16,26.12.72,47.42,1.42,14.37.49,3.91.16,1,.06A1.6,1.6,0,0,1,318.78,360.35Z" style="fill: rgb(38, 50, 56); transform-origin: 255.67499542236328px 367.860652923584px;" id="elaap24gf910s" class="animable"></path><path d="M338.36,308.39c.13.06-4.79,9.57-11,21.23s-11.33,21.06-11.46,21,4.8-9.57,11-21.23S338.24,308.32,338.36,308.39Z" style="fill: rgb(255, 255, 255); transform-origin: 327.13000297546387px 329.50496101379395px;" id="el2pyuyfqwg0v" class="animable"></path><path d="M302.17,306.43c.14,0-1.83,8.53-4.41,19s-4.78,18.89-4.92,18.85,1.84-8.53,4.42-19S302,306.39,302.17,306.43Z" style="fill: rgb(255, 255, 255); transform-origin: 297.5050239562988px 325.35498428344727px;" id="elm00jo1asf37" class="animable"></path><path d="M151,322c.11-.09,6.16,6.65,13.5,15.05s13.23,15.3,13.12,15.39-6.16-6.64-13.51-15S150.87,322.06,151,322Z" style="fill: rgb(255, 255, 255); transform-origin: 164.30970573425293px 337.22000789642334px;" id="elqpbwbverfth" class="animable"></path><path d="M174.85,288.52c.13,0,3.29,10.4,7.05,23.32s6.7,23.41,6.56,23.45-3.3-10.39-7.06-23.31S174.71,288.57,174.85,288.52Z" style="fill: rgb(255, 255, 255); transform-origin: 181.65499210357666px 311.90505599975586px;" id="el8scrvelap1g" class="animable"></path><path d="M272.59,277.09a3.81,3.81,0,0,1,.05.7c0,.52,0,1.19,0,2v7.47c0,6.36-.1,15-.17,24.64s-.24,18.29-.32,24.64c-.07,3.11-.12,5.65-.16,7.47,0,.84,0,1.52-.07,2a3.25,3.25,0,0,1-.06.71,3.51,3.51,0,0,1,0-.71c0-.51,0-1.19,0-2,0-1.82,0-4.36,0-7.47,0-6.36.1-15,.17-24.64s.24-18.28.33-24.64c.06-3.11.11-5.64.15-7.47,0-.84.05-1.51.07-2A3.09,3.09,0,0,1,272.59,277.09Z" style="fill: rgb(255, 255, 255); transform-origin: 272.24139297008514px 311.90501403808594px;" id="el9v9l3911ixw" class="animable"></path><path d="M306.34,154.94c-3.73-4-8.25-7.77-9.55-13.08-1.2-4.89.52-10.48-2.06-14.79-3.18-5.31-11.11-5.75-14.93-10.61-1.86-2.36-2.5-5.48-4.33-7.85-3.12-4-8.92-5-14-4.25s-9.89,2.69-15,3.21c-7,.72-14.25-1.33-20.89.9-7.32,2.45-11.63,9.14-16.24,15.63l-6,7.56a27.71,27.71,0,0,1-4.07,3.52c-2.59,1.8-5.57,3.07-7.77,5.32-4.7,4.82-4,13.76,1.39,17.78a13.22,13.22,0,0,0-8.48,13.25c.28,3.1,1.66,6,2.69,8.89s1.69,6.22.54,9.1-4.72,5-7.47,3.53a13.94,13.94,0,0,0,7.88,9,8.3,8.3,0,0,1-5.51,2.67c6.11,13.11,21.74,19.59,36.2,19.18s28.11-6.35,41.33-12.2l38.58-11.43c3.39-.89,4.67-5.1,4.51-8.6s-1.18-7.12,0-10.44c1.56-4.55,6.7-7.1,8.35-11.62C313.38,164.48,310.08,158.93,306.34,154.94Z" style="fill: rgb(38, 50, 56); transform-origin: 246.1097412109375px 164.02416229248047px;" id="elvvta69juhpp" class="animable"></path><path d="M215.47,193.55c-3.12-8.7-6.2-17.47-7.77-26.57s-1.58-18.65,1.38-27.4c.45-1.33,4.34-10.25,5.74-10.16,1,.07-1.32,8.36-.79,9.21,5.05,8.11,6.65,18,6.17,27.54a125,125,0,0,1-4.73,27.38" style="fill: rgb(38, 50, 56); transform-origin: 213.4664273262024px 161.48468399047852px;" id="eltlillmmt2d" class="animable"></path><path d="M249.63,114.34l-2.14,0c-23.16.8-35.42,20.92-34,44.05l.66,79.76A27.11,27.11,0,0,0,240.1,265h0a27.13,27.13,0,0,0,28.31-26.33c.12-4.19.22-7.12.23-7.12s22.32-2.93,23.12-25.15c.39-10.74-.61-32.91-1.75-53A41.43,41.43,0,0,0,249.63,114.34Z" style="fill: rgb(255, 190, 157); transform-origin: 252.61248016357422px 189.68309020996094px;" id="elsblx2lpyxxn" class="animable"></path><path d="M268.64,231.52s-14,.48-28.74-9.25c0,0,6.32,16.54,28.55,15.07Z" style="fill: rgb(235, 153, 110); transform-origin: 254.27001190185547px 229.851243019104px;" id="elipkkdegc0jl" class="animable"></path><path d="M280.22,173.93a3.19,3.19,0,0,1-3.14,3.13,3,3,0,0,1-3.2-2.94A3.18,3.18,0,0,1,277,171,3,3,0,0,1,280.22,173.93Z" style="fill: rgb(38, 50, 56); transform-origin: 277.04998779296875px 174.02929520606995px;" id="elbwk6j2amo6t" class="animable"></path><path d="M285,162.52c-.4.4-2.76-1.43-6.18-1.51s-6,1.58-6.32,1.15c-.18-.19.24-.92,1.35-1.69A8.75,8.75,0,0,1,279,159a8.39,8.39,0,0,1,4.91,1.72C284.9,161.58,285.24,162.34,285,162.52Z" style="fill: rgb(38, 50, 56); transform-origin: 278.76684284210205px 160.78617024421692px;" id="elgkhxhbjpme" class="animable"></path><path d="M249.3,173.93a3.19,3.19,0,0,1-3.14,3.13,3,3,0,0,1-3.2-2.94,3.18,3.18,0,0,1,3.13-3.14A3,3,0,0,1,249.3,173.93Z" style="fill: rgb(38, 50, 56); transform-origin: 246.13002014160156px 174.01965498924255px;" id="elqosaky3s70e" class="animable"></path><path d="M251.55,163.1c-.4.41-2.77-1.43-6.18-1.5s-6,1.58-6.33,1.15c-.17-.19.24-.93,1.36-1.7a8.73,8.73,0,0,1,5.07-1.43,8.33,8.33,0,0,1,4.91,1.72C251.41,162.17,251.75,162.92,251.55,163.1Z" style="fill: rgb(38, 50, 56); transform-origin: 245.30383729934692px 161.38759696483612px;" id="elaav8uhw96r8" class="animable"></path><path d="M263.18,189.65c0-.2,2.12-.52,5.57-.87.87-.07,1.7-.23,1.87-.82a4.53,4.53,0,0,0-.52-2.6l-2.43-6.7c-3.35-9.54-5.76-17.38-5.38-17.51s3.42,7.49,6.78,17c.81,2.36,1.58,4.6,2.31,6.74a5,5,0,0,1,.37,3.44,2.18,2.18,0,0,1-1.46,1.24,5.58,5.58,0,0,1-1.49.17C265.34,189.87,263.19,189.84,263.18,189.65Z" style="fill: rgb(38, 50, 56); transform-origin: 267.07564401626587px 175.48379039764404px;" id="el6d3dicom6tc" class="animable"></path><path d="M253.07,191.77c.56,0,.47,3.69,3.59,6.4s7.06,2.39,7.08,2.91c.05.23-.9.7-2.57.7a9.23,9.23,0,0,1-5.92-2.22,8.12,8.12,0,0,1-2.77-5.36C252.38,192.65,252.82,191.74,253.07,191.77Z" style="fill: rgb(38, 50, 56); transform-origin: 258.10366010665894px 196.77464389801025px;" id="el6x0q9zhvoy9" class="animable"></path><path d="M251.69,149.24c-.36.92-3.76.4-7.78.78s-7.28,1.41-7.8.56c-.22-.4.36-1.26,1.69-2.13a13.58,13.58,0,0,1,11.87-1C251.12,148.05,251.85,148.8,251.69,149.24Z" style="fill: rgb(38, 50, 56); transform-origin: 243.88810205459595px 148.71922326087952px;" id="elsu4d60a8s9k" class="animable"></path><path d="M283.9,151.13c-.62.76-2.95-.1-5.78-.21s-5.24.4-5.77-.42c-.23-.4.16-1.17,1.23-1.88a8.38,8.38,0,0,1,9.31.51C283.87,150,284.18,150.76,283.9,151.13Z" style="fill: rgb(38, 50, 56); transform-origin: 278.14248847961426px 149.44430112838745px;" id="el04rcoxmr4cwl" class="animable"></path><path d="M214.93,174.84c-.37-.17-15.16-4.88-15,10.33s15.37,12,15.39,11.51S214.93,174.84,214.93,174.84Z" style="fill: rgb(255, 190, 157); transform-origin: 207.62470960617065px 185.65725135803223px;" id="elhsbgt7q82qn" class="animable"></path><path d="M210.59,191c-.07-.05-.26.18-.71.39a2.62,2.62,0,0,1-2,.06c-1.61-.58-3-3.12-3.08-5.86a8.8,8.8,0,0,1,.71-3.8,3.06,3.06,0,0,1,2-2.05,1.34,1.34,0,0,1,1.56.72c.21.42.12.73.2.75s.32-.26.2-.88a1.7,1.7,0,0,0-.61-.95,2,2,0,0,0-1.47-.38,3.73,3.73,0,0,0-2.75,2.38,9,9,0,0,0-.88,4.25c.12,3.06,1.71,5.92,3.92,6.54a2.82,2.82,0,0,0,2.42-.43C210.56,191.32,210.64,191,210.59,191Z" style="fill: rgb(235, 153, 110); transform-origin: 207.17800402641296px 185.62870979309082px;" id="elx0jh6koqdel" class="animable"></path><path d="M279.75,128.38c2.44-1.4-5.08-9.24-11.18-11.89-9.21-4-23.21-6.31-31.6-3.77-10.1,3-18.44,8.24-23.38,17.56s-6.67,20.12-6.2,30.65c.15,3.22.54,6.57,2.3,9.26,2.18,3.32,6.29,5.37,6.19,10a6.42,6.42,0,0,0,1.66,4.62c2.84,2.91,6.19.07,7.71-2.74,3.24-6,3.49-13.13,3.67-20,.13-4.85.24-9.81-1.21-14.45-.78-2.52-2-4.89-2.66-7.46s-.62-5.48.94-7.61a10.39,10.39,0,0,1,1.22-1.27,15.87,15.87,0,0,1,15.68-3.26c8.62,2.89,23.32,7.16,27.09,4.19,5.42-4.27,6.69-7,6.69-7Z" style="fill: rgb(38, 50, 56); transform-origin: 243.7688446044922px 148.84470748901367px;" id="elk992f5vdrrg" class="animable"></path><path d="M237.73,110.64c8.31-2.94,17.82-3,25.71,1,4.19,2.09,8,5.47,9.34,10s-.48,10.05-4.78,11.89l-.3.19c-6.45,2.29-10.68,1.5-17.19-.63-5.47-1.79-10.37-5.07-15.86-6.84a31,31,0,0,0-18.09-.22C222.26,119.24,229.42,113.58,237.73,110.64Z" style="fill: rgb(38, 50, 56); transform-origin: 244.88643836975098px 121.81495761871338px;" id="elbdzdffy61m" class="animable"></path><path d="M202.25,176a6.38,6.38,0,0,1-.75-.88,12.39,12.39,0,0,1-1.61-2.93,12.64,12.64,0,0,1,1.33-11.82,12.71,12.71,0,0,1,2.8-3,14.23,14.23,0,0,1,3.9-2.12c2.84-1.1,6.14-1.67,8.84-3.71a7.45,7.45,0,0,0,2.81-4.12,17,17,0,0,0,.29-5.36c-.25-3.69-.4-7.66.83-11.5a17.61,17.61,0,0,1,7.08-9,26.46,26.46,0,0,1,9.93-4.12,25.25,25.25,0,0,1,9.73,0,21.16,21.16,0,0,1,7.8,3.31,20.55,20.55,0,0,1,7.59,9.47,17.38,17.38,0,0,1,.91,3.21l.12.86a1.36,1.36,0,0,1,0,.3,23.28,23.28,0,0,0-1.23-4.29,21,21,0,0,0-15.3-12.43,24.75,24.75,0,0,0-9.55,0,26.07,26.07,0,0,0-9.73,4.07,17.17,17.17,0,0,0-6.87,8.76c-1.2,3.72-1.07,7.62-.82,11.31a17.29,17.29,0,0,1-.32,5.52,7.89,7.89,0,0,1-3,4.37c-2.84,2.12-6.19,2.67-9,3.74a13.07,13.07,0,0,0-6.55,4.91A12.5,12.5,0,0,0,199.3,167a12.86,12.86,0,0,0,.78,5.12A15.29,15.29,0,0,0,202.25,176Z" style="fill: rgb(69, 90, 100); transform-origin: 231.42835235595703px 146.48344039916992px;" id="elrltqjb7cjch" class="animable"></path><path d="M200.61,179.45a9,9,0,0,1-1.17-.68,15.35,15.35,0,0,1-2.93-2.54,16.34,16.34,0,0,1-3.14-5.26,15.42,15.42,0,0,1-.62-8.06,15.78,15.78,0,0,1,4.61-8.62c2.56-2.52,5.95-4.32,9.11-6.66a18.73,18.73,0,0,0,4.27-4.21,20.57,20.57,0,0,0,2.71-5.64c1.36-4.06,2-8.56,3.91-12.8a24.19,24.19,0,0,1,8.8-10A24.71,24.71,0,0,1,238,111a26.93,26.93,0,0,1,11.16,1.64,27.58,27.58,0,0,1,8.46,5,29.77,29.77,0,0,1,8.1,11.61,22.77,22.77,0,0,1,1.42,5,1.57,1.57,0,0,1-.1-.32c-.07-.25-.15-.57-.26-1a32,32,0,0,0-1.25-3.65,30,30,0,0,0-8.15-11.4,27.09,27.09,0,0,0-8.37-4.89,26.61,26.61,0,0,0-11-1.58,24.35,24.35,0,0,0-11.56,3.88,23.77,23.77,0,0,0-8.61,9.81c-1.9,4.13-2.52,8.62-3.89,12.74a21,21,0,0,1-2.8,5.77,19.19,19.19,0,0,1-4.38,4.3c-3.22,2.36-6.58,4.14-9.09,6.59a15.49,15.49,0,0,0-4.56,8.37,15.25,15.25,0,0,0,.54,7.91,16,16,0,0,0,5.85,7.8C200.22,179.2,200.63,179.42,200.61,179.45Z" style="fill: rgb(69, 90, 100); transform-origin: 229.80852890014648px 145.19649124145508px;" id="elqqahkrxqga" class="animable"></path><path d="M290.51,377.46s-41.31-9.61-47.62-10.08c-5.92-.44-7.46,3.27-7.46,3.27s-8.86-1.11-10.81,4.06c0,0-1.56,3,2.07,4.54s23.33,5.87,27.38,9.64,38,23.05,38,23.05l13.69,5.59s6.15-16.07,6.43-20.68a12.23,12.23,0,0,0-1.4-7.12s8.52-8.66,9.5-12.15,7.13-15.51,7.13-15.51-5.77-5.88-11.48,1-8.91,10-10.46,11.25C301,377.9,293.14,378.29,290.51,377.46Z" style="fill: rgb(255, 190, 157); transform-origin: 275.8533592224121px 388.6297779083252px;" id="elydxp2c2o5wb" class="animable"></path><path d="M276.76,389.51s-.16,0-.44-.17l-1.21-.58-4.45-2.13c-3.77-1.76-9-4.09-15-6.27-3-1.09-5.85-2.06-8.48-2.88s-5-1.42-7-2.27a9.29,9.29,0,0,1-4-2.91,5.68,5.68,0,0,1-.65-1.2,1.33,1.33,0,0,1-.12-.45,12.29,12.29,0,0,0,.93,1.53,9.58,9.58,0,0,0,4,2.69c1.91.78,4.34,1.33,7,2.15s5.53,1.75,8.52,2.85a153.64,153.64,0,0,1,15,6.43c1.87.93,3.36,1.72,4.38,2.28l1.17.67A2.23,2.23,0,0,1,276.76,389.51Z" style="fill: rgb(235, 153, 110); transform-origin: 256.08502197265625px 380.0800018310547px;" id="el0tzes2z2jdk" class="animable"></path><path d="M303.6,375.69a9.67,9.67,0,0,1-3.73,3.07,9.53,9.53,0,0,1-4.63,1.35c0-.15,2.08-.57,4.39-1.81S303.49,375.57,303.6,375.69Z" style="fill: rgb(235, 153, 110); transform-origin: 299.4199981689453px 377.89660716056824px;" id="elqvxvz8cob67" class="animable"></path></g><g id="freepik--Table--inject-82" style="transform-origin: 250px 473.1199951171875px;" class="animable"><path d="M449,473.12c0,.15-89.1.26-199,.26s-199-.11-199-.26,89.08-.26,199-.26S449,473,449,473.12Z" style="fill: rgb(38, 50, 56); transform-origin: 250px 473.1199951171875px;" id="eltofnq8yvbmq" class="animable"></path></g><g id="freepik--speech-bubbles--inject-82" style="transform-origin: 228.87498474121094px 179.18701553344727px;" class="animable animator-hidden"><polygon points="164.85 145.95 33.23 145.95 33.23 200.1 151.6 200.1 159.67 208.17 159.67 200.1 164.85 200.1 164.85 145.95" style="fill: rgb(255, 255, 255); transform-origin: 99.04000473022461px 177.05999755859375px;" id="eln22cfc07qrg" class="animable"></polygon><path d="M164.85,146s0,.3,0,.92,0,1.55,0,2.75c0,2.45,0,6,0,10.68,0,9.34.06,22.9.1,39.8v.18h-5.36l.19-.19c0,2.49,0,5.25,0,8.07v.48l-.34-.34-8.07-8.06.14.06L39,200.36H33v-.26c0-19,0-37.27,0-54.15v-.25h.25l94.63.12,27.26.06,7.25,0h1.86l.62,0h-.65l-1.89,0-7.3,0-27.32.07-94.46.11.25-.24c0,16.88,0,35.15,0,54.15l-.26-.26H39l112.65,0h.09l.06.06,8.06,8.08-.34.14c0-2.82,0-5.58,0-8.07v-.18h5.37l-.18.18c0-16.86.08-30.37.1-39.69,0-4.66,0-8.26,0-10.72,0-1.22,0-2.15,0-2.78S164.85,146,164.85,146Z" style="fill: rgb(38, 50, 56); transform-origin: 98.97500610351562px 177.19499969482422px;" id="elflu996ca1lt" class="animable"></path><rect x="88.26" y="161.44" width="64.64" height="4.53" rx="2.15" style="fill: rgb(224, 224, 224); transform-origin: 120.58000000000001px 163.70499999999998px;" id="elemkzzrawkio" class="animable"></rect><rect x="88.26" y="171.54" width="64.64" height="4.53" rx="2.15" style="fill: rgb(224, 224, 224); transform-origin: 120.58000000000001px 173.80499999999998px;" id="el7l1mhlp7uzq" class="animable"></rect><rect x="88.26" y="181.64" width="64.64" height="4.53" rx="2.15" style="fill: rgb(224, 224, 224); transform-origin: 120.58000000000001px 183.90499999999997px;" id="el4n8jpmtfcxt" class="animable"></rect><rect x="44.12" y="157.15" width="33.3" height="33.3" rx="4.47" style="fill: rgb(69, 90, 100); transform-origin: 60.769999999999996px 173.8px;" id="elj8ssojn97qi" class="animable"></rect><path d="M47.41,183.68l-.77-.64,6.74-8a2.44,2.44,0,0,1,3.35-.59l4,2.65,4.67-5.91a2.48,2.48,0,0,1,3.75-.14l5.76,6.23-.74.67-5.76-6.22a1.41,1.41,0,0,0-1.13-.47,1.48,1.48,0,0,0-1.1.55l-5.24,6.63-4.74-3.16a1.45,1.45,0,0,0-2,.37Z" style="fill: rgb(255, 255, 255); transform-origin: 60.77499771118164px 176.97027826309204px;" id="eloqvz5oe1c5n" class="animable"></path><circle cx="57.79" cy="165.8" r="2.98" style="fill: rgb(255, 255, 255); transform-origin: 57.79px 165.8px;" id="el4ikhi2ma9ja" class="animable"></circle><polygon points="401.85 244.11 282.2 244.11 282.2 295.09 294.54 295.09 295.85 306.32 305.06 295.09 401.85 295.09 401.85 244.11" style="fill: rgb(255, 255, 255); transform-origin: 342.02500915527344px 275.21500396728516px;" id="ela9a0e7um7xe" class="animable"></polygon><path d="M401.85,244.11s0,.29,0,.87,0,1.46,0,2.6c0,2.3,0,5.69.05,10.06,0,8.8.05,21.56.09,37.45v.18h-.18l-96.79.08.2-.1c-2.92,3.56-6.05,7.37-9.21,11.24l-.39.47-.07-.61c-.42-3.56-.86-7.38-1.31-11.23l.26.23h-12.6v-.26c0-17.9,0-35.09,0-51v-.25h.25l86.09.11,24.74.07,6.57,0,1.69,0h.56l-.59,0h-1.71l-6.63,0-24.8.07-85.92.12.24-.25c0,15.89,0,33.08,0,51l-.26-.26h12.57l0,.23c.45,3.85.89,7.67,1.3,11.23l-.45-.13c3.16-3.86,6.29-7.68,9.21-11.23l.08-.1h.12l96.79.08-.18.18c0-15.85.08-28.57.1-37.34,0-4.39,0-7.79,0-10.1,0-1.15,0-2,0-2.63S401.85,244.11,401.85,244.11Z" style="fill: rgb(38, 50, 56); transform-origin: 341.9449920654297px 275.3999938964844px;" id="eltai8xhm1lq" class="animable"></path><path d="M387.6,260.2H340.08a2.41,2.41,0,0,1-2.4-2.4h0a2.4,2.4,0,0,1,2.4-2.4H387.6a2.4,2.4,0,0,1,2.4,2.4h0A2.41,2.41,0,0,1,387.6,260.2Z" style="fill: rgb(224, 224, 224); transform-origin: 363.8399963378906px 257.8000183105469px;" id="elcpbeig8dq1f" class="animable"></path><path d="M387.6,270.9H340.08a2.4,2.4,0,0,1-2.4-2.4h0a2.41,2.41,0,0,1,2.4-2.4H387.6a2.41,2.41,0,0,1,2.4,2.4h0A2.4,2.4,0,0,1,387.6,270.9Z" style="fill: rgb(224, 224, 224); transform-origin: 363.8399963378906px 268.50001525878906px;" id="elqwxbsa7263" class="animable"></path><path d="M387.6,281.61H340.08a2.41,2.41,0,0,1-2.4-2.4h0a2.4,2.4,0,0,1,2.4-2.4H387.6a2.4,2.4,0,0,1,2.4,2.4h0A2.41,2.41,0,0,1,387.6,281.61Z" style="fill: rgb(224, 224, 224); transform-origin: 363.8399963378906px 279.2099914550781px;" id="el3q1gzaxtx7b" class="animable"></path><rect x="290.89" y="250.85" width="35.3" height="35.3" rx="4.47" style="fill: rgb(235, 235, 235); transform-origin: 308.53999999999996px 268.5px;" id="elnh5bhwh6yoj" class="animable"></rect><path d="M294.36,279l-.77-.65,7.14-8.48a2.58,2.58,0,0,1,3.52-.62l4.23,2.82,5-6.28a2.59,2.59,0,0,1,1.92-1,2.64,2.64,0,0,1,2,.83l6.11,6.6-.74.68-6.1-6.6a1.59,1.59,0,0,0-2.41.09l-5.54,7-5-3.33a1.58,1.58,0,0,0-2.17.39Z" style="fill: rgb(255, 255, 255); transform-origin: 308.5500030517578px 271.8944215774536px;" id="elsh41pmdc9de" class="animable"></path><path d="M308.54,260a3.16,3.16,0,1,1-3.15-3.16A3.15,3.15,0,0,1,308.54,260Z" style="fill: rgb(255, 255, 255); transform-origin: 305.37994861602783px 260.0000174045563px;" id="elbt716h9snq8" class="animable"></path><path d="M155.69,233.22H60.43a6.27,6.27,0,0,0-6.27,6.27v55.42a5.5,5.5,0,0,0,5.5,5.5h77.63l12.21,12.21V300.41H154a6.63,6.63,0,0,0,6.63-6.63V238.19A5,5,0,0,0,155.69,233.22Z" style="fill: rgb(255, 255, 255); transform-origin: 107.39500045776367px 272.9199981689453px;" id="el55dsw4yyplr" class="animable"></path><path d="M60.84,233.22h95a4.85,4.85,0,0,1,4.85,4.85v7.64a.56.56,0,0,1-.56.56H54.72a.56.56,0,0,1-.56-.56V239.9a6.67,6.67,0,0,1,6.67-6.67Z" style="fill: rgb(224, 224, 224); transform-origin: 107.42499923706055px 239.74500274658203px;" id="elqucrefj6il" class="animable"></path><rect x="65.03" y="256.98" width="31.88" height="31.88" rx="4.47" style="fill: rgb(0, 154, 214); transform-origin: 80.97px 272.92px;" id="el5tt3as4nm99" class="animable"></rect><g id="elp0ptday2jzh"><g style="opacity: 0.30000000000000004; transform-origin: 80.97500610351562px 275.8756980895996px;" class="animable"><path d="M94.13,276.57a7.85,7.85,0,0,1-1.06-1l-2.75-2.85-1.88-2a1.66,1.66,0,0,0-2.44.07l-4.44,5.63-.35.44-.15.19-.2-.14-3.44-2.3-.8-.54a1.74,1.74,0,0,0-.79-.22,1.64,1.64,0,0,0-1.38.68h0L69.71,280l-1.37,1.52c-.32.35-.5.53-.52.51a2.83,2.83,0,0,1,.41-.6c.34-.44.76-1,1.27-1.6,1.18-1.44,2.74-3.36,4.59-5.61v0a2.12,2.12,0,0,1,1.75-.9,2.18,2.18,0,0,1,1,.28c.31.19.56.36.84.55l3.45,2.29-.35.06.35-.44,4.49-5.63a2.11,2.11,0,0,1,1.6-.71,2.07,2.07,0,0,1,1.52.67l1.83,2,2.63,3A7.51,7.51,0,0,1,94.13,276.57Z" id="el3ztr1znouf3" style="transform-origin: 80.97500610351562px 275.8756980895996px;" class="animable"></path></g></g><g id="ell1lb7dhqs0g"><g style="opacity: 0.30000000000000004; transform-origin: 78.14999771118164px 265.25999450683594px;" class="animable"><path d="M81,265.26a2.85,2.85,0,1,1-2.85-2.85A2.85,2.85,0,0,1,81,265.26Z" id="elk4lbxsr37h" style="transform-origin: 78.14999771118164px 265.25999450683594px;" class="animable"></path></g></g><path d="M155.69,233.22a4.32,4.32,0,0,1,1.41.17,5,5,0,0,1,3.11,2.6,5.94,5.94,0,0,1,.53,3c0,1.12,0,2.34,0,3.65,0,2.64,0,5.68,0,9.08,0,6.81,0,15.09.05,24.63q0,7.16,0,15.22a11.77,11.77,0,0,1-.41,4.1,7.31,7.31,0,0,1-2.48,3.43,7.2,7.2,0,0,1-4.07,1.51c-1.47,0-2.92,0-4.4,0l.22-.22c0,3.82,0,8,0,12.21v.55l-.39-.39-12.22-12.2.17.07-69.6,0H60.84a11.35,11.35,0,0,1-2.31-.11A5.74,5.74,0,0,1,54,295.73a19.39,19.39,0,0,1-.07-2.27q0-8.94,0-17.59c0-11.54,0-22.67,0-33.27v-2a17,17,0,0,1,.07-2A6.46,6.46,0,0,1,55.7,235a6.57,6.57,0,0,1,3.43-1.91,9.94,9.94,0,0,1,1.95-.13H63l14.61,0,26.22,0,38,.08,10.32,0,2.69,0c.6,0,.91,0,.91,0l-.91,0-2.69,0-10.32,0-38,.09-26.22,0H63a27.17,27.17,0,0,0-3.74.13,6.06,6.06,0,0,0-4.77,5.11,15.26,15.26,0,0,0-.06,1.93v2c0,10.6,0,21.73,0,33.27v17.59a19.86,19.86,0,0,0,.06,2.2,5.35,5.35,0,0,0,.72,2,5.26,5.26,0,0,0,3.43,2.39,11.47,11.47,0,0,0,2.21.1h6.85l69.6,0h.1l.07.07,12.2,12.22-.39.16,0-12.21v-.21h.21c1.47,0,2.95,0,4.37,0a6.91,6.91,0,0,0,3.85-1.41,7,7,0,0,0,2.35-3.24,11.24,11.24,0,0,0,.39-4q0-8.06,0-15.22c0-9.54,0-17.82,0-24.63,0-3.4,0-6.44,0-9.08,0-1.31,0-2.53,0-3.65a5.8,5.8,0,0,0-.48-2.93,4.94,4.94,0,0,0-3-2.59A6.86,6.86,0,0,0,155.69,233.22Z" style="fill: rgb(38, 50, 56); transform-origin: 107.37337875366211px 273.05247497558594px;" id="el5o764imxdpq" class="animable"></path><path d="M63.35,239.52a2.25,2.25,0,1,1-2.24-2.24A2.25,2.25,0,0,1,63.35,239.52Z" style="fill: rgb(255, 255, 255); transform-origin: 61.09998869895935px 239.53002071380615px;" id="elhu0bcadkbvr" class="animable"></path><path d="M70.1,239.52a2.25,2.25,0,1,1-2.25-2.24A2.25,2.25,0,0,1,70.1,239.52Z" style="fill: rgb(255, 255, 255); transform-origin: 67.8499858379364px 239.53003311157227px;" id="elrcynfe19xh" class="animable"></path><path d="M76.84,239.52a2.25,2.25,0,1,1-2.24-2.24A2.24,2.24,0,0,1,76.84,239.52Z" style="fill: rgb(255, 255, 255); transform-origin: 74.58998823165894px 239.53002071380615px;" id="ely36pd57k37" class="animable"></path><path d="M146.42,263.22c0,.14-8.71.26-19.45.26s-19.44-.12-19.44-.26S116.24,263,127,263,146.42,263.07,146.42,263.22Z" style="fill: rgb(38, 50, 56); transform-origin: 126.9749984741211px 263.24000549316406px;" id="el5a9n68w9hnk" class="animable"></path><path d="M146.42,270.58c0,.15-8.71.26-19.45.26s-19.44-.11-19.44-.26,8.71-.26,19.44-.26S146.42,270.44,146.42,270.58Z" style="fill: rgb(38, 50, 56); transform-origin: 126.9749984741211px 270.5799865722656px;" id="elfnxwym5lapp" class="animable"></path><path d="M146.42,278c0,.15-8.71.26-19.45.26s-19.44-.11-19.44-.26,8.71-.26,19.44-.26S146.42,277.81,146.42,278Z" style="fill: rgb(38, 50, 56); transform-origin: 126.9749984741211px 278px;" id="eljxrpc1kr1kj" class="animable"></path><polygon points="322.65 170.14 424.69 170.14 424.69 221.7 340.58 221.7 331.21 231.07 331.21 221.7 322.65 221.7 322.65 170.14" style="fill: rgb(255, 255, 255); transform-origin: 373.6699981689453px 200.6050033569336px;" id="el0sazeq9oitpl" class="animable"></polygon><path d="M322.65,170.14s0,.32,0,.92,0,1.51,0,2.68c0,2.36,0,5.81,0,10.26,0,8.9.06,21.76.11,37.7l-.19-.19h8.76v.21c0,2.91,0,6.09,0,9.37l-.36-.16,9.36-9.37.06-.07h.1l77.48,0h6.63l-.26.26c0-18.19,0-35.57,0-51.56l.24.24-73.37-.12-21.09-.07-5.62,0h-2l.47,0h1.43l5.58,0,21-.07,73.53-.12h.24v.25c0,16,0,33.37,0,51.56V222h-6.89l-77.48,0,.16-.07-9.38,9.36-.37.36v-.51c0-3.28,0-6.46,0-9.37l.2.2h-8.76v-.19c0-16,.07-28.89.1-37.82,0-4.43,0-7.87.05-10.22,0-1.15,0-2,0-2.64S322.65,170.14,322.65,170.14Z" style="fill: rgb(38, 50, 56); transform-origin: 373.4899597167969px 200.84998321533203px;" id="el7eu4van2jc6" class="animable"></path><path d="M407.51,185.86c0,.15-15.26.26-34.07.26s-34.07-.11-34.07-.26,15.25-.26,34.07-.26S407.51,185.72,407.51,185.86Z" style="fill: rgb(38, 50, 56); transform-origin: 373.44000244140625px 185.86000061035156px;" id="el19q81amcoaw" class="animable"></path><path d="M407.51,193.23c0,.15-15.26.26-34.07.26s-34.07-.11-34.07-.26,15.25-.26,34.07-.26S407.51,193.09,407.51,193.23Z" style="fill: rgb(38, 50, 56); transform-origin: 373.44000244140625px 193.22999572753906px;" id="ely3t0ndnextq" class="animable"></path><path d="M407.51,200.6c0,.14-15.26.26-34.07.26s-34.07-.12-34.07-.26,15.25-.26,34.07-.26S407.51,200.46,407.51,200.6Z" style="fill: rgb(38, 50, 56); transform-origin: 373.44000244140625px 200.60000610351562px;" id="el04one8e2x0i4" class="animable"></path><polygon points="169.61 72.92 97.28 72.92 97.28 124.48 151.68 124.48 161.05 133.85 161.05 124.48 169.61 124.48 169.61 72.92" style="fill: rgb(255, 255, 255); transform-origin: 133.44499969482422px 103.38500213623047px;" id="elpk8h41vac5" class="animable"></polygon><path d="M169.61,72.92s0,.3,0,.9,0,1.52,0,2.69c0,2.38,0,5.86.05,10.32,0,9,.06,21.89.11,37.65v.21h-8.77l.22-.21c0,2.93,0,6.1,0,9.36v.56l-.4-.39-9.37-9.36.17.07-47.77,0H97v-.27c0-18.57,0-36.08,0-51.56v-.23h.24l52.37.12,14.76.06,3.88,0h1.32l-.35,0h-1l-3.93,0L149.5,73l-52.22.12.23-.24c0,15.48,0,33,0,51.56l-.26-.25h6.63l47.77,0h.1l.07.07,9.36,9.38-.39.16c0-3.26,0-6.43,0-9.36v-.22h8.78l-.21.2c0-15.71.09-28.57.11-37.53,0-4.47,0-8,.05-10.36,0-1.18,0-2.09,0-2.72S169.61,72.92,169.61,72.92Z" style="fill: rgb(38, 50, 56); transform-origin: 133.38500213623047px 103.52999496459961px;" id="elhmux5updw9r" class="animable"></path><path d="M114,88.65c0-.14,8.71-.26,19.44-.26s19.44.12,19.44.26-8.7.26-19.44.26S114,88.79,114,88.65Z" style="fill: rgb(38, 50, 56); transform-origin: 133.44000244140625px 88.6500015258789px;" id="eluzhu3ymhmlm" class="animable"></path><path d="M114,96c0-.14,8.71-.26,19.44-.26s19.44.12,19.44.26-8.7.26-19.44.26S114,96.16,114,96Z" style="fill: rgb(38, 50, 56); transform-origin: 133.44000244140625px 96px;" id="elqg3p9h3c9hd" class="animable"></path><path d="M114,103.39c0-.15,8.71-.26,19.44-.26s19.44.11,19.44.26-8.7.26-19.44.26S114,103.53,114,103.39Z" style="fill: rgb(38, 50, 56); transform-origin: 133.44000244140625px 103.38999938964844px;" id="eljyd1frty0y" class="animable"></path><polygon points="251.37 32.83 201.4 32.83 201.4 82.8 206.18 82.8 206.18 90.25 213.62 82.8 251.37 82.8 251.37 32.83" style="fill: rgb(255, 255, 255); transform-origin: 226.38499450683594px 61.540000915527344px;" id="ela5srie53tyv" class="animable"></polygon><path d="M251.37,32.83s0,.3,0,.89,0,1.5,0,2.64c0,2.35,0,5.76.05,10.1,0,8.77.07,21.28.12,36.34V83h-.22l-37.75,0,.18-.08-7.44,7.45-.44.44V82.8l.26.26h-5V82.8c0-18.35,0-35.43,0-50v-.22h.22l36.33.12,10.1.05,2.65,0,.89,0-.94,0-2.69,0-10.15.06-36.19.12.22-.23c0,14.54,0,31.62,0,50l-.26-.26h5v7.71l-.45-.19,7.45-7.44.07-.07h.11l37.75,0-.23.22c.05-15,.09-27.46.12-36.2,0-4.36,0-7.79.06-10.15,0-1.15,0-2.05,0-2.68S251.37,32.83,251.37,32.83Z" style="fill: rgb(38, 50, 56); transform-origin: 226.3349838256836px 61.69499969482422px;" id="elnrf6hmso3r" class="animable"></path><path d="M229.05,57.82a7.57,7.57,0,0,0,4.51-7,7.1,7.1,0,1,0-14.18-.07,7.55,7.55,0,0,0,4.52,7.06c-10.91,1.64-10.41,13.5-10.41,13.5l25.78.11S239.86,59.45,229.05,57.82Z" style="fill: rgb(69, 90, 100); transform-origin: 226.38109970092773px 57.36489677429199px;" id="el6zhdqxvhukf" class="animable"></path><polygon points="359.06 99.37 409.03 99.37 409.03 149.34 404.25 149.34 404.25 156.78 396.81 149.34 359.06 149.34 359.06 99.37" style="fill: rgb(255, 255, 255); transform-origin: 384.0449981689453px 128.07500076293945px;" id="el1of6xjchxv1" class="animable"></polygon><path d="M359.06,99.37s0,.33,0,.94,0,1.52,0,2.68c0,2.36,0,5.79.06,10.15,0,8.73.07,21.19.11,36.2l-.22-.22,37.75,0h.11l.07.08,7.45,7.44-.45.18v-7.7h5l-.26.26c0-18.35,0-35.43,0-50l.22.22-36.19-.11-10.15-.06-2.69,0c-.61,0-.94,0-.94,0l.89,0,2.65,0,10.1-.06L409,99.15h.22v.22c0,14.54,0,31.62,0,50v.26h-5l.26-.26v8.07l-.44-.45-7.44-7.44.18.07-37.75,0h-.22v-.22c.05-15.07.09-27.58.12-36.34,0-4.34,0-7.75.05-10.1q0-1.71,0-2.64C359.05,99.66,359.06,99.37,359.06,99.37Z" style="fill: rgb(38, 50, 56); transform-origin: 384.01499938964844px 128.29500198364258px;" id="ellg4ofxqx0fe" class="animable"></path><path d="M396.2,121.33a12.15,12.15,0,1,0-22.63,6.14h0l0,0c.47.78,1,1.35,1.64,2.17L382.3,139a2.2,2.2,0,0,0,3.5,0l6.94-9.19a27.24,27.24,0,0,0,1.76-2.34l0,0h0A12,12,0,0,0,396.2,121.33Zm-12.15,5.3a5.35,5.35,0,1,1,5.35-5.35A5.35,5.35,0,0,1,384.05,126.63Z" style="fill: rgb(0, 154, 214); transform-origin: 384.0499839782715px 124.51929664611816px;" id="elv5y14d088r" class="animable"></path><g id="el2nlyl69xnf3"><circle cx="318.78" cy="68.24" r="35.62" style="fill: rgb(255, 255, 255); transform-origin: 318.78px 68.24px; transform: rotate(-24.8deg);" class="animable"></circle></g><path d="M354.4,68.24s0-.2-.06-.58-.06-1-.11-1.69c0-.37-.05-.79-.07-1.25s-.15-.95-.23-1.48a26,26,0,0,0-.74-3.68,34,34,0,0,0-3.95-9.44,35.42,35.42,0,0,0-9-10,35,35,0,0,0-14.91-6.61,32.69,32.69,0,0,0-4.47-.52c-.77,0-1.54-.1-2.31-.09l-2.34.12c-.4,0-.79,0-1.19.08l-1.18.18c-.78.13-1.59.22-2.38.39A37.23,37.23,0,0,0,306.72,35a38.22,38.22,0,0,0-4.61,2c-.75.41-1.46.88-2.2,1.32a17.27,17.27,0,0,0-2.14,1.47,41.34,41.34,0,0,0-4,3.41,40.09,40.09,0,0,0-3.46,4.1,34,34,0,0,0-5.06,9.74,38.19,38.19,0,0,0-1.83,11.16,37.86,37.86,0,0,0,1.83,11.16l1,2.62,1.2,2.5a7.77,7.77,0,0,0,.66,1.2l.71,1.17.71,1.17.81,1.09a41.5,41.5,0,0,0,3.47,4.1,40.18,40.18,0,0,0,4,3.41,17.27,17.27,0,0,0,2.14,1.47c.74.44,1.45.91,2.2,1.32a38.22,38.22,0,0,0,4.61,2,37.23,37.23,0,0,0,4.72,1.38c.8.17,1.6.26,2.38.39l1.18.18c.4,0,.79,0,1.19.08l2.34.12c.77,0,1.54-.06,2.31-.09a32.69,32.69,0,0,0,4.47-.52,35,35,0,0,0,14.91-6.61,35.42,35.42,0,0,0,9-10.05,34,34,0,0,0,3.95-9.44,26,26,0,0,0,.74-3.68c.08-.53.18-1,.23-1.48s0-.87.07-1.25c0-.73.09-1.29.11-1.69s.06-.57.06-.57,0,.19,0,.57,0,1-.06,1.7c0,.37,0,.79,0,1.25s-.13.95-.21,1.5a24.58,24.58,0,0,1-.7,3.7,33.86,33.86,0,0,1-3.89,9.54,35.8,35.8,0,0,1-24.1,16.94,35.26,35.26,0,0,1-4.53.54c-.77,0-1.55.1-2.33.09l-2.38-.12c-.39,0-.8,0-1.19-.07l-1.2-.18c-.8-.13-1.61-.22-2.41-.39a36.21,36.21,0,0,1-4.79-1.39,37.75,37.75,0,0,1-4.68-2c-.76-.41-1.49-.89-2.24-1.33a19.74,19.74,0,0,1-2.16-1.49,41.38,41.38,0,0,1-4.08-3.45,42.72,42.72,0,0,1-3.52-4.16l-.82-1.1-.73-1.18L287.61,86a9.12,9.12,0,0,1-.67-1.23c-.4-.84-.81-1.68-1.22-2.53s-.65-1.77-1-2.66a38,38,0,0,1-1.86-11.32,38.61,38.61,0,0,1,1.86-11.32A34.89,34.89,0,0,1,289.88,47a42.93,42.93,0,0,1,3.52-4.16,41.38,41.38,0,0,1,4.08-3.45,19.74,19.74,0,0,1,2.16-1.49c.75-.44,1.48-.92,2.24-1.33a38.73,38.73,0,0,1,9.47-3.44c.8-.17,1.61-.26,2.41-.39l1.19-.18c.4-.05.8-.05,1.2-.07l2.37-.12c.79,0,1.57.07,2.34.1a33.57,33.57,0,0,1,4.53.53A35.8,35.8,0,0,1,349.49,50a33.86,33.86,0,0,1,3.89,9.54,24.46,24.46,0,0,1,.7,3.71c.08.54.17,1,.21,1.49s0,.88,0,1.25c0,.73,0,1.3.06,1.7S354.4,68.24,354.4,68.24Z" style="fill: rgb(38, 50, 56); transform-origin: 318.63999938964844px 68.19034576416016px;" id="elxc6hdtbowbl" class="animable"></path><path d="M312.27,82a6.13,6.13,0,0,0,3.22-.87q.66-.63.66-3.42V66.35a7.32,7.32,0,0,0-.21-2.14,1.43,1.43,0,0,0-1.5-1,2.1,2.1,0,0,0-.51.05c-.17,0-.65.15-1.45.38v-.74l1-.34q4.17-1.35,5.81-2a3.16,3.16,0,0,1,.86-.28,1.36,1.36,0,0,1,.05.36V77.72c0,1.81.22,3,.66,3.41a4.88,4.88,0,0,0,3,.88v.67H312.27Zm3.79-31.87a2.48,2.48,0,1,1,1.76,4.22,2.46,2.46,0,0,1-2.48-2.46A2.43,2.43,0,0,1,316.06,50.14Z" style="fill: rgb(38, 50, 56); transform-origin: 318.0649719238281px 66.03497123718262px;" id="el38puedvcpvu" class="animable"></path><path d="M294.8,107.63a5.61,5.61,0,1,1-5.61-5.6A5.61,5.61,0,0,1,294.8,107.63Z" style="fill: rgb(255, 255, 255); transform-origin: 289.190007686615px 107.63999366760254px;" id="elp8pg9o0hds" class="animable"></path><path d="M294.8,107.63c-.06,0,0-.5-.28-1.34a5.59,5.59,0,0,0-2-3,5.38,5.38,0,1,0,0,8.62,5.59,5.59,0,0,0,2-3c.24-.84.22-1.34.28-1.34s0,.12,0,.36a4,4,0,0,1-.11,1,5.61,5.61,0,0,1-2,3.21,5.8,5.8,0,0,1-5.5.89,5.72,5.72,0,0,1-2.72-2,5.78,5.78,0,0,1,0-6.92,5.72,5.72,0,0,1,2.72-2,5.8,5.8,0,0,1,5.5.89,5.58,5.58,0,0,1,2,3.21,4,4,0,0,1,.11,1Q294.83,107.63,294.8,107.63Z" style="fill: rgb(38, 50, 56); transform-origin: 289.07331132888794px 107.56999826431274px;" id="elqgkuf51or2k" class="animable"></path><path d="M253.86,270.9h-52a4.73,4.73,0,0,0-4.73,4.73v47.95a4.73,4.73,0,0,0,4.73,4.73h42.69l8.55,8.56v-8.56h.76a4.73,4.73,0,0,0,4.73-4.73V275.63A4.73,4.73,0,0,0,253.86,270.9Z" style="fill: rgb(255, 255, 255); transform-origin: 227.86000061035156px 303.885009765625px;" id="el46ch02gi4co" class="animable"></path><path d="M253.86,270.9A3.84,3.84,0,0,1,255,271a4.72,4.72,0,0,1,2.79,1.9,4.79,4.79,0,0,1,.84,2.36c0,.93,0,1.92,0,3,0,2.16,0,4.65,0,7.43,0,5.58,0,12.33,0,20.07,0,3.87,0,8,0,12.33,0,1.08,0,2.18,0,3.29v1.68a6.49,6.49,0,0,1-.16,1.74,5,5,0,0,1-2,2.88,4.88,4.88,0,0,1-1.69.72,8.55,8.55,0,0,1-1.81.11l.23-.23c0,2.68,0,5.59,0,8.56v.57l-.41-.4-8.56-8.55.18.07H201.69a5,5,0,0,1-4.67-3.81,6.1,6.1,0,0,1-.15-1.57V312.71c0-7.87,0-15.46,0-22.69q0-5.43,0-10.57v-3.81a5.64,5.64,0,0,1,.17-1.29,4.94,4.94,0,0,1,3.46-3.48,8.81,8.81,0,0,1,2.43-.18h6.91l8.59,0,25.89.08,7,.05,1.83,0c.41,0,.62,0,.62,0l-.62,0-1.83,0-7,0-25.89.09H203a8.47,8.47,0,0,0-2.32.18,4.5,4.5,0,0,0-3.14,3.17,9.3,9.3,0,0,0-.15,2.44v2.55q0,5.15,0,10.57c0,7.23,0,14.82,0,22.69v9a16,16,0,0,0,.13,3,4.46,4.46,0,0,0,4.19,3.42h6.21l36.63,0h.1l.07.07,8.55,8.56-.41.17c0-3,0-5.88,0-8.56v-.22h.23a8.07,8.07,0,0,0,1.72-.11,4.22,4.22,0,0,0,1.53-.64,4.5,4.5,0,0,0,1.87-2.62,5.83,5.83,0,0,0,.15-1.63v-5c0-4.34,0-8.46,0-12.33,0-7.74,0-14.49.06-20.07,0-2.78,0-5.27,0-7.43,0-1.08,0-2.09,0-3a4.69,4.69,0,0,0-3.48-4.2A9.29,9.29,0,0,0,253.86,270.9Z" style="fill: rgb(38, 50, 56); transform-origin: 227.75125122070312px 304.04071044921875px;" id="el53kcwd7qnk9" class="animable"></path><rect x="207.34" y="282.41" width="41.85" height="35.22" rx="7.67" style="fill: rgb(69, 90, 100); transform-origin: 228.26500000000001px 300.02000000000004px;" id="elefgg9r8b1v" class="animable"></rect><path d="M225.51,307.76a1.63,1.63,0,0,1-2.45-1.41V293.69a1.63,1.63,0,0,1,2.45-1.41l5.48,3.16,5.48,3.17a1.62,1.62,0,0,1,0,2.82L231,304.6Z" style="fill: rgb(255, 255, 255); transform-origin: 230.17616271972656px 300.0200242996216px;" id="el5gc2hqwst5q" class="animable"></path></g><defs>     <filter id="active" height="200%">         <feMorphology in="SourceAlpha" result="DILATED" operator="dilate" radius="2"></feMorphology>                <feFlood flood-color="#32DFEC" flood-opacity="1" result="PINK"></feFlood>        <feComposite in="PINK" in2="DILATED" operator="in" result="OUTLINE"></feComposite>        <feMerge>            <feMergeNode in="OUTLINE"></feMergeNode>            <feMergeNode in="SourceGraphic"></feMergeNode>        </feMerge>    </filter>    <filter id="hover" height="200%">        <feMorphology in="SourceAlpha" result="DILATED" operator="dilate" radius="2"></feMorphology>                <feFlood flood-color="#ff0000" flood-opacity="0.5" result="PINK"></feFlood>        <feComposite in="PINK" in2="DILATED" operator="in" result="OUTLINE"></feComposite>        <feMerge>            <feMergeNode in="OUTLINE"></feMergeNode>            <feMergeNode in="SourceGraphic"></feMergeNode>        </feMerge>            <feColorMatrix type="matrix" values="0   0   0   0   0                0   1   0   0   0                0   0   0   0   0                0   0   0   1   0 "></feColorMatrix>    </filter></defs></svg>